<?xml version="1.0" encoding="UTF-8" standalone="no"?>
<!-- Created with Inkscape (http://www.inkscape.org/) -->

<svg
   xmlns:dc="http://purl.org/dc/elements/1.1/"
   xmlns:cc="http://creativecommons.org/ns#"
   xmlns:rdf="http://www.w3.org/1999/02/22-rdf-syntax-ns#"
   xmlns:svg="http://www.w3.org/2000/svg"
   xmlns="http://www.w3.org/2000/svg"
   xmlns:xlink="http://www.w3.org/1999/xlink"
   xmlns:sodipodi="http://sodipodi.sourceforge.net/DTD/sodipodi-0.dtd"
   xmlns:inkscape="http://www.inkscape.org/namespaces/inkscape"
   width="1052.3622"
   height="744.09448"
   id="svg4930"
   sodipodi:version="0.32"
   inkscape:version="0.92.2 5c3e80d, 2017-08-06"
   version="1.0"
   sodipodi:docname="water.svg">
  <defs
     id="defs4932">
    <linearGradient
       id="linearGradient11070">
      <stop
         style="stop-color:white;stop-opacity:1;"
         offset="0"
         id="stop11072" />
      <stop
         style="stop-color:white;stop-opacity:0;"
         offset="1"
         id="stop11074" />
    </linearGradient>
    <radialGradient
       inkscape:collect="always"
       xlink:href="#linearGradient11070"
       id="radialGradient4804"
       gradientUnits="userSpaceOnUse"
       gradientTransform="matrix(1.662875,0,0,1.437359,96.74705,-445.0486)"
       cx="59.05817"
       cy="1033.4912"
       fx="59.05817"
       fy="1033.4912"
       r="52.761566" />
    <linearGradient
       id="linearGradient3196">
      <stop
         style="stop-color:#fff108;stop-opacity:1;"
         offset="0"
         id="stop3198" />
      <stop
         id="stop4091"
         offset="0.72093022"
         style="stop-color:#ff4f04;stop-opacity:0.49803922;" />
      <stop
         style="stop-color:#fc0;stop-opacity:0;"
         offset="1"
         id="stop3200" />
    </linearGradient>
    <linearGradient
       id="linearGradient31688">
      <stop
         style="stop-color:#ff7f00;stop-opacity:1;"
         offset="0"
         id="stop31690" />
      <stop
         id="stop31696"
         offset="1"
         style="stop-color:#fd0;stop-opacity:0.49803922;" />
      <stop
         style="stop-color:yellow;stop-opacity:0;"
         offset="1"
         id="stop31692" />
    </linearGradient>
    <radialGradient
       inkscape:collect="always"
       xlink:href="#linearGradient11070"
       id="radialGradient5688"
       gradientUnits="userSpaceOnUse"
       gradientTransform="matrix(1.662875,0,0,1.437359,1159.021,-891.2668)"
       cx="59.05817"
       cy="1033.4912"
       fx="59.05817"
       fy="1033.4912"
       r="52.761566" />
  </defs>
  <sodipodi:namedview
     id="base"
     pagecolor="#ffd88a"
     bordercolor="#666666"
     borderopacity="1.0"
     inkscape:pageopacity="0.86666667"
     inkscape:pageshadow="2"
     inkscape:zoom="0.49497475"
     inkscape:cx="779.13236"
     inkscape:cy="434.8627"
     inkscape:document-units="px"
     inkscape:current-layer="layer1"
     width="1052.3622px"
     height="744.09448px"
     inkscape:window-width="1024"
     inkscape:window-height="711"
     inkscape:window-x="197"
     inkscape:window-y="226"
     showgrid="false"
     inkscape:window-maximized="0" />
  <metadata
     id="metadata4935">
    <rdf:RDF>
      <cc:Work
         rdf:about="">
        <dc:format>image/svg+xml</dc:format>
        <dc:type
           rdf:resource="http://purl.org/dc/dcmitype/StillImage" />
        <dc:title></dc:title>
      </cc:Work>
    </rdf:RDF>
  </metadata>
  <g
     inkscape:label="Camada 1"
     inkscape:groupmode="layer"
     id="layer1">
    <path
       style="fill:#aef;fill-rule:evenodd;stroke:black;stroke-width:1.30928934px;stroke-linecap:butt;stroke-linejoin:miter;stroke-opacity:0"
       d="M -13.842344,479.34054 L 58.174323,453.51119 L 149.73836,463.19718 L 222.78386,463.19718 L 385.33576,427.68187 L 443.9779,437.36786 L 510.85052,482.5692 L 598.36497,487.4122 L 749.53434,450.28254 L 844.18481,447.05384 L 962.49792,477.72619 L 1061.2636,476.11186 L 1082.8686,474.49753 L 1083.8974,526.1562 L -13.842344,479.34054 z "
       id="path14037" />
    <rect
       style="fill:#aef;fill-opacity:1;stroke:black;stroke-width:0.96583235;stroke-opacity:0"
       id="rect14035"
       width="1108.4714"
       height="258.11542"
       x="-20.932915"
       y="489.46152" />
    <path
       style="fill:#ffdd74;fill-opacity:1;fill-rule:evenodd;stroke:black;stroke-width:1.13879001px;stroke-linecap:butt;stroke-linejoin:miter;stroke-opacity:0"
       d="M 45.833178,465.4143 L 132.92694,488.95617 L 263.57844,515.00804 L 127.86293,563.39008 L 170.40063,575.79573 L 492.47169,550.98444 L 363.84412,620.46329 L 514.75336,635.34286 L 628.18719,635.34286 L 504.62395,683.97734 L 626.16158,707.29562 L 699.08334,712.25789 L 646.41797,748.47952 L -17.980569,749.47486 L -16.967424,473.35535 L 45.833178,465.4143 z "
       id="path9600"
       sodipodi:nodetypes="cccccccccccccccc" />
    <path
       style="fill:#00aad4;fill-opacity:1;stroke:black;stroke-width:1.26476765;stroke-opacity:0"
       id="path12263"
       d="M 34.691181,449.21971 C 49.033433,447.84012 63.271639,449.03704 77.492213,450.9567 C 97.668022,454.4137 118.04949,456.10748 138.46359,457.14565 C 161.7964,458.59008 185.04453,457.07027 208.14037,453.70469 C 233.86377,450.43748 259.20557,444.87664 284.65987,440.02391 C 309.70388,434.37759 335.19177,431.86504 360.75977,430.572 C 382.18885,429.20951 403.49233,429.02724 424.58783,433.34129 C 439.57445,438.30332 453.15844,446.66353 467.30501,453.62543 C 487.41103,464.35629 509.03937,469.53656 531.33681,472.71161 C 557.3477,476.01978 583.38773,476.35354 609.1702,471.48325 C 635.79119,464.96564 662.72971,459.85243 689.71267,455.16898 C 728.95446,448.53363 768.53648,444.61743 808.20444,441.93959 C 830.17659,440.5064 852.0915,440.60072 873.4371,446.38936 C 900.87853,454.89935 929.28556,458.62708 957.69797,461.84551 C 994.97302,465.45812 1032.418,466.5065 1069.8391,466.90023 C 1079.7603,466.99769 1089.6684,466.96804 1099.5805,466.55235 L 1085.2872,477.18366 C 1075.6951,477.23066 1066.1093,477.03796 1056.5211,476.71915 C 1019.3847,475.69216 982.23777,474.28471 945.22586,470.87979 C 916.22903,468.09166 887.17597,464.88669 859.14639,456.41694 C 838.22263,451.12909 816.76711,450.53375 795.27638,451.63079 C 755.65326,453.84164 716.09135,457.61127 677.02344,464.90757 C 649.76782,469.8893 622.62254,475.54292 595.63679,481.87381 C 569.78637,486.30561 543.7236,485.75606 517.7174,482.50306 C 495.1126,479.3357 473.19484,474.09396 452.72086,463.44417 C 438.57424,456.71143 425.07833,448.37559 410.1385,443.58746 C 389.40733,439.15407 368.39439,439.37546 347.30484,440.64141 C 321.77762,442.08727 296.33147,444.66142 271.31925,450.29007 C 245.85098,455.207 220.45595,460.59409 194.72034,463.93399 C 171.42868,467.245 147.98783,468.78593 124.46644,467.39479 C 103.97,466.29894 83.546701,464.32254 63.240653,461.23107 C 48.976891,459.51272 34.692723,458.81133 20.346324,460.01891 C 160.12728,464.80267 107.35193,467.70513 34.691181,449.21971 z "
       sodipodi:nodetypes="ccccccccccccccccccccccccccccccccc" />
    <path
       style="fill:#00aad4;fill-opacity:1"
       id="path9598"
       d="M 6.4665446,461.64852 C 10.889231,460.22062 16.896529,459.13895 21.964841,457.98169 C 13.739151,459.09904 17.454105,455.92913 61.538511,449.42324 C 85.471815,480.89292 129.0889,473.52049 160.63967,471.67131 C 191.26701,470.09413 228.20636,490.77617 258.9888,491.36889 C 275.10206,491.60041 291.02649,491.25088 303.53395,495.92359 C 302.05417,504.70902 279.62788,508.7669 264.92469,513.30953 C 239.79347,521.35298 222.51919,531.63694 197.10571,539.48561 C 179.47055,544.51262 161.50532,549.26853 148.79361,557.02631 C 142.5074,561.18138 142.01366,563.17408 146.74988,566.47994 C 177.44607,569.82243 209.52194,567.05295 240.3013,565.34436 C 309.09343,561.01212 377.56911,555.67232 446.08958,550.50608 C 462.92053,550.28982 494.03158,544.04438 504.61509,553.16771 C 501.85153,562.94666 478.03875,569.88229 463.05391,576.09639 C 446.60148,583.31074 430.28382,590.59177 414.34578,598.05346 C 403.83094,603.18223 392.89457,608.23235 388.35181,615.15121 C 391.63869,627.06351 433.8352,626.16301 453.56585,627.33486 C 504.3891,629.67472 555.52878,628.93929 606.49148,629.96768 C 632.20041,630.53716 630.72865,637.86013 616.38021,645.25939 C 596.18806,653.79299 573.60925,660.99531 551.88404,668.64353 C 538.69095,673.32301 527.28267,677.90089 531.16901,685.6026 C 546.03232,690.77909 565.19672,691.02299 582.99041,692.10839 C 609.26021,693.12236 635.36909,694.58382 660.59146,698.22907 C 672.95012,700.04337 685.00948,702.22575 695.89271,705.47111 C 704.0049,709.84191 695.3298,713.7453 689.2985,717.60162 C 682.34557,721.45401 677.73588,725.8311 673.88986,730.44231 C 673.01408,731.0072 678.11596,730.55998 679.73721,730.41362 C 684.05113,730.56804 688.04992,730.16054 692.19098,729.78679 C 693.82041,728.96118 696.30188,728.81121 698.32523,728.33104 L 642.25974,748.87566 C 639.86981,749.20079 637.68548,749.97817 635.03994,749.85781 C 630.61472,749.90672 626.15224,750.02438 621.723,749.7879 C 615.45365,748.9106 610.32412,748.50105 609.89474,744.82842 C 613.44012,739.50112 619.85816,734.91002 626.69381,730.31036 C 629.65804,728.20482 636.69906,724.68319 635.99008,722.99415 C 626.93648,719.71267 616.553,717.52764 605.8879,715.55249 C 581.69301,711.59268 556.1537,710.11089 530.63117,709.44462 C 510.29938,708.58779 486.6054,708.69084 471.16189,701.56852 C 461.31817,692.3357 477.20038,685.17342 492.27915,679.69018 C 513.41605,672.42141 534.88086,665.2872 554.7631,657.27982 C 564.49496,652.5881 573.92292,649.34453 554.61459,647.16118 C 506.35159,643.10794 457.18433,643.03828 408.30238,642.38855 C 384.44869,641.78524 329.53734,644.81093 326.60237,628.98494 C 329.73559,621.06982 341.10986,615.5903 352.72454,609.92798 C 369.58432,602.35588 386.65255,594.89125 403.62702,587.3785 C 417.52126,581.67615 431.15284,575.80202 443.38264,569.30915 C 431.41468,565.50357 415.5576,565.90311 399.84994,566.58433 C 332.26369,569.13571 265.23749,573.86559 198.67921,579.89237 C 163.42195,582.7975 123.19489,588.69228 87.683742,584.07595 C 76.25588,579.7938 79.980236,574.82367 86.951887,569.54548 C 99.437455,560.76722 118.14251,555.37127 137.58799,550.29883 C 163.3409,542.74074 187.86219,534.29108 212.50029,525.97443 C 224.52149,522.08447 229.66761,515.95977 242.14602,512.64931 C 232.10487,510.12203 219.53188,508.83878 207.16947,508.76399 C 177.09238,508.09327 140.89206,487.53512 110.94317,488.95046 C 78.344599,490.7999 44.814365,459.63734 9.4622279,468.3672 C -63.123586,481.63441 124.17045,442.07234 -41.721047,483.36302 C -48.012121,484.65913 -40.234356,483.01673 -47.140167,483.04229 L 6.4665446,461.64852 z "
       sodipodi:nodetypes="ccccccccccccccccccccccccccccccccccccccccccccccccccccccccccc" />
    <path
       style="fill:#a80;fill-opacity:1;stroke:black;stroke-width:1.01828086;stroke-opacity:0"
       id="path14956"
       d="M 461.18009,722.24237 C 447.27589,729.64839 447.6303,729.58823 461.88849,721.44544 L 452.49209,728.89092 C 465.81867,721.26537 465.5298,721.52508 451.36557,729.2235 L 461.18009,722.24237 z " />
    <path
       style="fill:#a80;fill-opacity:1;stroke:black;stroke-width:1.01828086;stroke-opacity:0"
       id="path14974"
       d="M 463.81413,725.87796 C 466.59842,725.55397 469.39204,725.32175 472.18205,725.05405 L 462.67164,731.95616 C 459.85498,732.26819 457.01164,732.43752 454.23747,733.04725 L 463.81413,725.87796 z " />
    <path
       style="fill:#a80;fill-opacity:1;stroke:black;stroke-width:1.01828086;stroke-opacity:0"
       id="path14976"
       d="M 523.98447,732.15968 C 530.13509,732.47142 536.28321,732.06068 542.42343,731.74531 L 533.13598,738.42565 C 526.81691,738.75922 520.49993,739.11436 514.16996,739.1408 L 523.98447,732.15968 z " />
    <g
       id="g15969"
       transform="matrix(1.029129,0,0,1.007547,-18.04129,-2.159149)">
      <path
         d="M 26.246064,592.98369 C 26.407321,590.5949 26.016884,594.91307 26.413415,591.57483 L 37.052882,586.60783 C 36.951679,586.94923 36.418163,587.16451 36.749275,587.63204 L 26.246064,592.98369 z "
         id="path14930"
         style="fill:#a80;fill-opacity:1;stroke:black;stroke-opacity:0" />
      <path
         d="M 62.602115,651.38022 C 66.698702,649.47936 70.980227,648.04565 75.236315,646.55764 L 66.425186,653.43469 C 62.047204,655.04181 57.629749,656.57751 53.460768,658.69244 L 62.602115,651.38022 z "
         id="path14932"
         style="fill:#a80;fill-opacity:1;stroke:black;stroke-opacity:0" />
      <path
         d="M 153.21994,668.71344 C 157.38386,666.32475 161.54778,663.93606 165.7117,661.54737 L 156.75413,668.78536 C 159.2066,667.36075 161.65907,665.93613 164.11154,664.51151 L 153.21994,668.71344 z "
         id="path14934"
         style="fill:#a80;fill-opacity:1;stroke:black;stroke-opacity:0" />
      <path
         d="M 260.3094,695.39378 C 278.32752,695.65684 244.02763,695.22652 271.83394,695.56203 L 262.87494,702.07113 C 234.59544,702.40139 269.50909,701.97802 250.88722,702.23939 L 260.3094,695.39378 z "
         id="path14936"
         style="fill:#a80;fill-opacity:1;stroke:black;stroke-opacity:0" />
      <path
         d="M 359.80448,707.17766 C 360.78193,707.23484 364.59344,707.24145 365.27095,707.25047 L 355.97284,714.00595 C 354.08388,714.03021 352.19432,714.01144 350.30595,714.07875 L 359.80448,707.17766 z "
         id="path14938"
         style="fill:#a80;fill-opacity:1;stroke:black;stroke-opacity:0" />
      <path
         d="M 152.23674,622.51276 C 152.25377,622.02393 152.25627,621.5348 152.26603,621.04582 L 162.71067,615.72401 C 162.71559,616.01866 162.72052,616.31332 162.72544,616.60797 C 162.73028,616.79235 162.73511,616.97673 162.73995,617.1611 L 152.23674,622.51276 z "
         id="path14940"
         style="fill:#a80;fill-opacity:1;stroke:black;stroke-opacity:0" />
      <path
         d="M 55.775129,528.01975 C 55.83767,527.69945 55.900211,527.37915 55.962752,527.05885 L 66.561674,522.03698 C 66.467229,522.24735 66.372784,522.45772 66.278339,522.6681 L 55.775129,528.01975 z "
         id="path14942"
         style="fill:#a80;fill-opacity:1;stroke:black;stroke-opacity:0" />
      <path
         d="M 107.37126,518.17778 C 107.96287,518.21294 110.06337,518.21994 110.43875,518.22582 L 101.03427,525.05857 C 99.967697,525.07458 98.900714,525.06557 97.834546,525.10661 L 107.37126,518.17778 z "
         id="path14944"
         style="fill:#a80;fill-opacity:1;stroke:black;stroke-opacity:0" />
      <path
         d="M 82.419824,635.09918 C 85.768806,637.74622 89.220583,640.26733 92.610528,642.86714 L 82.967343,648.97025 C 79.529838,646.39864 76.10777,643.81621 72.544187,641.42244 L 82.419824,635.09918 z "
         id="path14946"
         style="fill:#a80;fill-opacity:1;stroke:black;stroke-opacity:0" />
      <path
         d="M 81.779406,699.28938 C 82.377705,700.72281 84.091333,700.65208 85.164092,701.2844 L 75.546519,707.78913 C 74.407343,707.24747 73.243454,706.96432 72.24269,706.21821 L 81.779406,699.28938 z "
         id="path14948"
         style="fill:#a80;fill-opacity:1;stroke:black;stroke-opacity:0" />
      <path
         d="M 227.96488,639.5686 C 229.15903,639.36107 230.05799,638.54363 231.10454,638.03114 L 222.05298,645.32328 C 220.9765,645.84246 219.94249,646.44999 218.82353,646.88081 L 227.96488,639.5686 z "
         id="path14950"
         style="fill:#a80;fill-opacity:1;stroke:black;stroke-opacity:0" />
      <path
         d="M 294.61461,663.86143 C 294.9042,663.8655 295.19379,663.86957 295.48338,663.87364 L 285.99937,670.76418 C 285.69857,670.76825 285.39778,670.77232 285.09698,670.77639 L 294.61461,663.86143 z "
         id="path14952"
         style="fill:#a80;fill-opacity:1;stroke:black;stroke-opacity:0" />
      <path
         d="M 408.45244,700.59291 C 412.31561,698.42691 416.17879,696.26091 420.04196,694.0949 C 420.83459,693.71999 421.62723,693.34508 422.41986,692.97017 L 413.38606,700.15514 C 412.55664,700.53547 411.72722,700.91581 410.89781,701.29614 C 413.69964,699.56354 416.50147,697.83094 419.3033,696.09834 L 408.45244,700.59291 z "
         id="path14954"
         style="fill:#a80;fill-opacity:1;stroke:black;stroke-opacity:0" />
      <path
         d="M 288.48286,604.79637 C 291.05589,604.6534 293.51477,603.46212 295.95407,602.68841 L 286.85334,609.79626 C 284.25196,610.4981 281.70259,611.74897 278.94614,611.7252 L 288.48286,604.79637 z "
         id="path14958"
         style="fill:#a80;fill-opacity:1;stroke:black;stroke-opacity:0" />
      <path
         d="M 209.6234,602.16269 C 210.11488,601.65604 211.59891,600.60214 211.99419,600.28989 L 222.79047,595.97499 C 222.0184,596.53937 221.34982,597.25005 220.47426,597.66812 L 209.6234,602.16269 z "
         id="path14960"
         style="fill:#a80;fill-opacity:1;stroke:black;stroke-opacity:0" />
      <path
         d="M 276.72963,643.7248 C 277.82678,643.59509 278.91508,643.40449 280.0078,643.24433 L 270.72708,650.23844 C 269.66708,650.51562 268.53773,650.53907 267.54708,651.06998 L 276.72963,643.7248 z "
         id="path14962"
         style="fill:#a80;fill-opacity:1;stroke:black;stroke-opacity:0" />
      <path
         d="M 190.64352,698.96052 C 192.37227,698.71071 193.9775,698.01617 195.64449,697.544 L 186.54021,704.58859 C 186.49562,704.60134 181.78755,706.08023 181.33793,706.07611 L 190.64352,698.96052 z "
         id="path14964"
         style="fill:#a80;fill-opacity:1;stroke:black;stroke-opacity:0" />
      <path
         d="M 209.73869,718.97542 C 211.54936,719.37165 213.26248,718.65828 215.02377,718.49976 L 205.80964,725.43799 C 203.93966,725.59348 202.10037,726.09503 200.20197,725.90425 L 209.73869,718.97542 z "
         id="path14966"
         style="fill:#a80;fill-opacity:1;stroke:black;stroke-opacity:0" />
      <path
         d="M 310.13751,654.01148 C 306.99071,655.71119 303.84391,657.4109 300.69711,659.11061 L 311.63321,654.89926 C 307.95573,656.91294 304.27826,658.92662 300.60079,660.94031 L 310.13751,654.01148 z "
         id="path14968"
         style="fill:#a80;fill-opacity:1;stroke:black;stroke-opacity:0" />
      <path
         d="M 365.8493,667.46285 C 369.40773,667.00057 372.91084,666.27347 376.43307,665.58351 L 367.3354,672.48351 C 363.73872,673.18777 360.1391,673.88062 356.54371,674.57844 L 365.8493,667.46285 z "
         id="path14970"
         style="fill:#a80;fill-opacity:1;stroke:black;stroke-opacity:0" />
      <path
         d="M 430.10709,671.06385 C 430.39781,670.81688 430.68853,670.56991 430.97925,670.32295 C 434.71487,668.16335 438.45049,666.00374 442.18611,663.84414 L 433.09497,671.16495 C 436.01562,669.44662 438.93628,667.72829 441.85694,666.00997 C 441.55728,666.1964 441.25761,666.38284 440.95794,666.56927 L 430.10709,671.06385 z "
         id="path14972"
         style="fill:#a80;fill-opacity:1;stroke:black;stroke-opacity:0" />
      <path
         d="M 290.33618,724.21616 C 294.19935,722.05016 298.06253,719.88416 301.9257,717.71816 C 302.56905,717.4173 303.21239,717.11643 303.85574,716.81557 L 294.77575,724.0272 C 294.11101,724.32459 293.44628,724.62199 292.78155,724.91939 C 295.58338,723.18679 298.38521,721.45419 301.18704,719.72159 L 290.33618,724.21616 z "
         id="path14978"
         style="fill:#a80;fill-opacity:1;stroke:black;stroke-opacity:0" />
      <path
         d="M 172.6721,718.60399 C 173.6966,718.66529 177.61882,716.58554 178.09219,716.39239 L 169.11678,723.52027 C 167.21236,724.28176 165.41418,725.31393 163.40351,725.80472 L 172.6721,718.60399 z "
         id="path14980"
         style="fill:#a80;fill-opacity:1;stroke:black;stroke-opacity:0" />
      <path
         d="M 113.72894,677.6486 C 114.18208,677.55232 114.63521,677.45603 115.08835,677.35975 L 105.76322,684.36758 C 105.25229,684.42828 104.74135,684.48899 104.23041,684.54969 L 113.72894,677.6486 z "
         id="path14982"
         style="fill:#a80;fill-opacity:1;stroke:black;stroke-opacity:0" />
      <path
         d="M 39.301594,717.71302 C 42.960862,714.87121 46.511146,711.89608 50.109922,708.98 L 60.571487,704.75664 C 57.065691,707.62429 53.534259,710.47054 50.142744,713.47119 L 39.301594,717.71302 z "
         id="path14984"
         style="fill:#a80;fill-opacity:1;stroke:black;stroke-opacity:0" />
      <path
         d="M 22.60599,688.78129 C 23.068095,688.3836 23.530201,687.98591 23.992306,687.58822 L 34.783609,683.23765 C 34.341355,683.58734 33.899101,683.93703 33.456847,684.28671 L 22.60599,688.78129 z "
         id="path14986"
         style="fill:#a80;fill-opacity:1;stroke:black;stroke-opacity:0" />
      <path
         d="M 21.261424,635.63139 C 18.619181,637.03594 15.976937,638.44049 13.334694,639.84505 L 24.06009,635.54591 C 20.080086,638.01181 16.100081,640.4777 12.120077,642.9436 L 21.261424,635.63139 z "
         id="path14988"
         style="fill:#a80;fill-opacity:1;stroke:black;stroke-opacity:0" />
      <path
         d="M 64.570719,596.2593 C 65.08223,596.05861 65.59374,595.85792 66.10525,595.65724 L 56.966209,602.87338 C 56.45393,603.10609 55.941651,603.3388 55.429372,603.57152 L 64.570719,596.2593 z "
         id="path14990"
         style="fill:#a80;fill-opacity:1;stroke:black;stroke-opacity:0" />
      <path
         d="M 38.47011,524.08359 C 35.164779,525.88188 31.859449,527.68016 28.554118,529.47844 C 28.844057,529.2366 29.133996,528.99476 29.423935,528.75291 L 40.2335,524.28012 C 39.98883,524.56895 39.74416,524.85778 39.49949,525.14661 C 35.977458,527.10188 32.455426,529.05715 28.933395,531.01242 L 38.47011,524.08359 z "
         id="path14992"
         style="fill:#a80;fill-opacity:1;stroke:black;stroke-opacity:0" />
      <path
         style="fill:#a80;fill-opacity:1;stroke:black;stroke-opacity:0"
         id="path14994"
         d="M 77.842197,561.48707 C 80.415227,561.3441 82.874107,560.15282 85.313407,559.37911 L 76.212677,566.48696 C 73.611297,567.1888 71.061927,568.43967 68.305477,568.4159 L 77.842197,561.48707 z " />
      <path
         d="M 142.80614,524.08359 C 145.37917,523.94062 147.83805,522.74934 150.27735,521.97563 L 141.17662,529.08348 C 138.57524,529.78532 136.02587,531.03619 133.26942,531.01242 L 142.80614,524.08359 z "
         id="path14996"
         style="fill:#a80;fill-opacity:1;stroke:black;stroke-opacity:0" />
      <path
         style="fill:#a80;fill-opacity:1;stroke:black;stroke-opacity:0"
         id="path14998"
         d="M 54.218945,498.49173 C 56.791975,498.34876 59.250855,497.15748 61.690155,496.38377 L 52.589425,503.49162 C 49.988045,504.19346 47.438675,505.44433 44.682225,505.42056 L 54.218945,498.49173 z " />
    </g>
    <path
       style="fill:#00aad4;fill-opacity:1;stroke:black;stroke-width:0.80332923;stroke-opacity:0"
       id="path26734"
       d="M 582.49226,534.93937 C 589.38157,533.17226 596.68213,531.41456 603.87357,529.93105 C 616.07585,527.40258 627.94437,526.1692 640.59809,526.88925 C 654.19448,530.51169 667.70882,533.9502 682.16503,536.08461 C 694.48148,537.65912 707.03888,538.21231 719.57343,538.65488 L 695.46519,549.13888 C 682.91341,548.47989 670.33263,547.8092 657.97884,546.23887 C 643.37782,544.09859 629.77149,540.56589 615.63135,537.58306 C 603.47931,537.36124 591.81894,538.50988 580.27399,541.12047 C 572.5121,542.88098 564.90272,545.4039 556.77663,546.29328 L 582.49226,534.93937 z " />
    <path
       d="M 720.25671,604.36051 C 727.14602,602.59341 734.44658,600.83571 741.63802,599.3522 C 753.8403,596.82373 765.70882,595.59035 778.36254,596.31039 C 791.95893,599.93284 805.47326,603.37134 819.92948,605.50575 C 832.24593,607.08027 844.80333,607.63346 857.33788,608.07602 L 833.22963,618.56003 C 820.67786,617.90104 808.09708,617.23035 795.74329,615.66001 C 781.14227,613.51974 767.53593,609.98704 753.39579,607.00421 C 741.24376,606.78238 729.58339,607.93103 718.03843,610.54161 C 710.27655,612.30213 702.66717,614.82505 694.54108,615.71443 L 720.25671,604.36051 z "
       id="path26736"
       style="fill:#00aad4;fill-opacity:1;stroke:black;stroke-width:0.80332923;stroke-opacity:0" />
    <path
       style="fill:#00aad4;fill-opacity:1;stroke:black;stroke-width:0.80332923;stroke-opacity:0"
       id="path26738"
       d="M 920.82554,546.84013 C 927.71485,545.07302 935.01541,543.31533 942.20685,541.83181 C 954.40913,539.30335 966.27765,538.06997 978.93137,538.79001 C 992.52776,542.41245 1006.0421,545.85096 1020.4982,547.98537 C 1032.8147,549.55988 1045.3721,550.11308 1057.9067,550.55564 L 1033.7984,561.03964 C 1021.2466,560.38065 1008.6659,559.70996 996.31212,558.13963 C 981.7111,555.99936 968.10477,552.46665 953.96463,549.48382 C 941.81259,549.262 930.15222,550.41064 918.60727,553.02123 C 910.84538,554.78175 903.236,557.30466 895.10991,558.19405 L 920.82554,546.84013 z " />
    <path
       d="M 817.50221,681.7155 C 824.39151,679.94839 831.69207,678.1907 838.88351,676.70718 C 851.08579,674.17872 862.95432,672.94534 875.60803,673.66538 C 889.20442,677.28782 902.71876,680.72633 917.17493,682.86074 C 929.49145,684.43525 942.04878,684.98845 954.58336,685.43101 L 930.47509,695.91501 C 917.92332,695.25602 905.34257,694.58533 892.98879,693.015 C 878.38776,690.87473 864.78143,687.34202 850.64129,684.35919 C 838.48925,684.13737 826.82888,685.28601 815.28393,687.8966 C 807.52204,689.65712 799.91266,692.18003 791.78658,693.06942 L 817.50221,681.7155 z "
       id="path26740"
       style="fill:#00aad4;fill-opacity:1;stroke:black;stroke-width:0.80332923;stroke-opacity:0" />
  </g>
</svg>
